<svg xmlns="http://www.w3.org/2000/svg" viewBox="0 0 26.51 27.9"><defs><style>.cls-1{fill:none;stroke:#1d1d1b;stroke-linecap:round;stroke-linejoin:round;stroke-width:2px;}</style></defs><title>activity</title><g id="Layer_2" data-name="Layer 2"><g id="Layer_1-2" data-name="Layer 1"><path class="cls-1" d="M14.26,14.72l3.21,5.49-1.88,3.53L14.1,26.24a1.35,1.35,0,0,1-1.84.47l-.15-.09a1.35,1.35,0,0,1-.47-1.84l2-3.4.58-1.14L11,14.75l3.07-5.32-1.82-.95H9.34A1.35,1.35,0,0,1,8,7.14V7A1.35,1.35,0,0,1,9.34,5.63h3.95L20.58,9.2l.78-1.31,1.5-2.5a1.35,1.35,0,0,1,1.84-.46l.15.09a1.35,1.35,0,0,1,.46,1.84l-2,3.39-.9,1.6a1.31,1.31,0,0,1-1.69.54l-1.38-.76-3.24,6"/><path class="cls-1" d="M12.69,17.62l-1.18,1.89H2.29A1.29,1.29,0,0,1,1,18.22V18a1.29,1.29,0,0,1,1.29-1.29H9.84l1.16-2"/><circle class="cls-1" cx="18.26" cy="3.33" r="2.33"/></g></g></svg>