<svg xmlns="http://www.w3.org/2000/svg" viewBox="0 0 31.93 22.92"><defs><style>.cls-1{fill:none;stroke-linecap:round;stroke-linejoin:round;}.cls-1,.cls-3{stroke:#1d1d1b;}.cls-2{fill:#1d1d1b;opacity:0.5;}.cls-3{fill:#fff;stroke-miterlimit:10;}</style></defs><title>grid_active</title><g id="Layer_2" data-name="Layer 2"><g id="Layer_1-2" data-name="Layer 1"><rect class="cls-1" x="0.5" y="0.5" width="30.93" height="21.92" rx="4.96" ry="4.96"/><path class="cls-2" d="M26.47.5h-21a5,5,0,0,0-5,5v12a5,5,0,0,0,5,5h21a5,5,0,0,0,5-5v-12A5,5,0,0,0,26.47.5ZM12.23,19.1H5.62a3.12,3.12,0,0,1,0-6.24h6.62a3.12,3.12,0,0,1,0,6.24Zm0-9H5.62a3.12,3.12,0,0,1,0-6.24h6.62a3.12,3.12,0,1,1,0,6.24Zm14.08,9H19.7a3.12,3.12,0,0,1,0-6.24h6.62a3.12,3.12,0,0,1,0,6.24Zm0-9H19.7a3.12,3.12,0,1,1,0-6.24h6.62a3.12,3.12,0,0,1,0,6.24Z"/><rect class="cls-3" x="2.5" y="3.83" width="12.85" height="6.24" rx="3.12" ry="3.12"/><rect class="cls-3" x="16.58" y="3.83" width="12.85" height="6.24" rx="3.12" ry="3.12"/><rect class="cls-3" x="2.5" y="12.86" width="12.85" height="6.24" rx="3.12" ry="3.12"/><rect class="cls-3" x="16.58" y="12.86" width="12.85" height="6.24" rx="3.12" ry="3.12"/></g></g></svg>