<svg xmlns="http://www.w3.org/2000/svg" viewBox="0 0 15.47 18.95"><defs><style>.cls-1,.cls-2{fill:none;stroke:#010101;}.cls-1{stroke-linecap:round;stroke-linejoin:round;}.cls-2{stroke-miterlimit:10;}</style></defs><title>add_note</title><g id="Layer_2" data-name="Layer 2"><g id="Layer_1-2" data-name="Layer 1"><line class="cls-1" x1="7.74" y1="7.2" x2="7.74" y2="11.75"/><line class="cls-1" x1="10.02" y1="9.47" x2="5.46" y2="9.47"/><line class="cls-2" x1="14.73" y1="5.7" x2="9.26" y2="0.45"/><path class="cls-2" d="M10.77,5.63A1.16,1.16,0,0,1,9.61,4.46V1.14A.64.64,0,0,0,9,.5H2.18A1.69,1.69,0,0,0,.5,2.18V16.77a1.69,1.69,0,0,0,1.68,1.68H13.29A1.69,1.69,0,0,0,15,16.77V6.27a.64.64,0,0,0-.64-.64Z"/></g></g></svg>