<?xml version="1.0" encoding="iso-8859-1"?>
<!-- Generator: Adobe Illustrator 21.0.2, SVG Export Plug-In . SVG Version: 6.00 Build 0)  -->
<svg version="1.1" id="Layer_1" xmlns="http://www.w3.org/2000/svg" xmlns:xlink="http://www.w3.org/1999/xlink" x="0px" y="0px"
	 viewBox="0 0 595.28 841.89" style="enable-background:new 0 0 595.28 841.89;" xml:space="preserve">
<g>
	<path style="fill:none;stroke:#000000;stroke-linecap:round;stroke-miterlimit:10;" d="M235.534,136.087
		c0-1.355,1.099-2.454,2.454-2.454s2.454,1.099,2.454,2.454c0,0.445-0.118,0.862-0.326,1.222c-0.768,1.203-2.142,1.372-2.142,3.839"
		/>
	<circle cx="238.028" cy="143.095" r="0.675"/>
	<path style="fill:none;stroke:#000000;stroke-miterlimit:10;" d="M233.674,146.223c0,0-4.983,0.915-5.264,0.985
		c-0.268,0.067,1.917-4.527,1.917-4.527c-0.607-1.186-0.95-2.529-0.95-3.953c0-4.796,3.888-8.684,8.684-8.684
		s8.684,3.888,8.684,8.684s-3.888,8.684-8.684,8.684C236.461,147.411,234.962,146.978,233.674,146.223z"/>
</g>
<g>
	<path style="fill:none;stroke:#000000;stroke-miterlimit:10;" d="M158.861,147.506h-8.576c-2.47,0-4.49-2.021-4.49-4.49v-8.576
		c0-2.47,2.021-4.49,4.49-4.49h8.576c2.47,0,4.49,2.021,4.49,4.49v8.576C163.352,145.485,161.331,147.506,158.861,147.506z"/>
	<path style="fill:none;stroke:#000000;stroke-linecap:round;stroke-linejoin:round;stroke-miterlimit:10;" d="M155.732,133.835
		h2.887c0.44,0,0.8,0.36,0.8,0.8v2.887"/>
	<path style="fill:none;stroke:#000000;stroke-linecap:round;stroke-linejoin:round;stroke-miterlimit:10;" d="M153.339,143.545
		h-2.887c-0.44,0-0.8-0.36-0.8-0.8v-2.887"/>
</g>
<g>
	<path style="fill:none;stroke:#000000;stroke-miterlimit:10;" d="M132.73,147.506h-8.576c-2.47,0-4.49-2.021-4.49-4.49v-8.576
		c0-2.47,2.021-4.49,4.49-4.49h8.576c2.47,0,4.49,2.021,4.49,4.49v8.576C137.22,145.485,135.2,147.506,132.73,147.506z"/>
	<path style="fill:none;stroke:#000000;stroke-linecap:round;stroke-linejoin:round;stroke-miterlimit:10;" d="M123.179,140.257
		h2.887c0.44,0,0.8,0.36,0.8,0.8v2.887"/>
	<path style="fill:none;stroke:#000000;stroke-linecap:round;stroke-linejoin:round;stroke-miterlimit:10;" d="M133.519,137.234
		h-2.887c-0.44,0-0.8-0.36-0.8-0.8v-2.887"/>
</g>
<g>
	<g>
		
			<ellipse transform="matrix(0.7071 -0.7071 0.7071 0.7071 -44.5519 168.1997)" style="fill:none;stroke:#000000;stroke-miterlimit:10;" cx="180.759" cy="137.879" rx="3.485" ry="3.485"/>
		
			<line style="fill:none;stroke:#000000;stroke-linecap:round;stroke-linejoin:round;stroke-miterlimit:10;" x1="183.48" y1="140.825" x2="185.717" y2="143.062"/>
	</g>
	<g>
		<polyline style="fill:none;stroke:#000000;stroke-miterlimit:10;" points="190.126,134.245 185.65,134.245 185.652,130.094 		"/>
		<g>
			<path style="fill:none;stroke:#000000;stroke-miterlimit:10;" d="M190.274,134.44v8.576c0,2.47-2.021,4.49-4.49,4.49h-8.576
				c-2.47,0-4.49-2.021-4.49-4.49v-8.576c0-2.47,2.021-4.49,4.49-4.49h8.576L190.274,134.44z"/>
		</g>
	</g>
</g>
<g>
	<g>
		
			<line style="fill:none;stroke:#020203;stroke-linecap:round;stroke-linejoin:round;stroke-miterlimit:10;" x1="104.844" y1="187.478" x2="104.844" y2="192.037"/>
		
			<line style="fill:none;stroke:#020203;stroke-linecap:round;stroke-linejoin:round;stroke-miterlimit:10;" x1="107.123" y1="189.758" x2="102.564" y2="189.758"/>
	</g>
	<line style="fill:none;stroke:#020203;stroke-miterlimit:10;" x1="111.839" y1="185.987" x2="106.372" y2="180.736"/>
	<path style="fill:none;stroke:#020203;stroke-miterlimit:10;" d="M107.879,185.908c-0.642,0-1.162-0.52-1.162-1.162v-3.324
		c0-0.354-0.287-0.64-0.64-0.64h-6.786c-0.926,0-1.683,0.757-1.683,1.683v14.584c0,0.926,0.757,1.683,1.683,1.683h11.105
		c0.926,0,1.683-0.757,1.683-1.683v-10.501c0-0.354-0.287-0.64-0.64-0.64H107.879z"/>
</g>
<g>
	<g>
		<polyline style="fill:none;stroke:#000000;stroke-miterlimit:10;" points="111.807,134.245 107.33,134.245 107.332,130.094 		"/>
		<g>
			<path style="fill:none;stroke:#000000;stroke-miterlimit:10;" d="M111.954,134.44v8.576c0,2.47-2.021,4.49-4.49,4.49h-8.576
				c-2.47,0-4.49-2.021-4.49-4.49v-8.576c0-2.47,2.021-4.49,4.49-4.49h8.576L111.954,134.44z"/>
		</g>
	</g>
	<g>
		<path style="fill:none;stroke:#020203;stroke-linecap:round;stroke-miterlimit:10;" d="M106.723,139.288l-2.749,2.748
			c-0.441,0.441-1.156,0.441-1.597,0l-2.748-2.748"/>
		
			<line style="fill:none;stroke:#020203;stroke-linecap:round;stroke-miterlimit:10;" x1="103.176" y1="135.088" x2="103.176" y2="142.217"/>
	</g>
</g>
<g>
	<path style="fill:none;stroke:#020203;stroke-linecap:round;stroke-linejoin:round;stroke-miterlimit:10;" d="M201.848,144.462
		h-0.784c-1.034,0-1.873-0.839-1.873-1.873v-5.61c0-1.034,0.839-1.873,1.873-1.873h14.435c1.034,0,1.873,0.839,1.873,1.873v5.61
		c0,1.034-0.839,1.873-1.873,1.873h-0.829"/>
	<path style="fill:none;stroke:#020203;stroke-linecap:round;stroke-linejoin:round;stroke-miterlimit:10;" d="M214.696,144.511
		v1.477c0,0.969-0.785,1.754-1.754,1.754h-9.32c-0.969,0-1.754-0.785-1.754-1.754v-1.622"/>
	<polyline style="fill:none;stroke:#020203;stroke-linecap:round;stroke-linejoin:round;stroke-miterlimit:10;" points="
		201.867,144.366 201.867,140.269 214.696,140.269 214.696,144.511 	"/>
	<path style="fill:none;stroke:#020203;stroke-linecap:round;stroke-linejoin:round;stroke-miterlimit:10;" d="M201.867,135.115
		v-3.647c0-0.969,0.785-1.754,1.754-1.754h9.32c0.969,0,1.754,0.785,1.754,1.754v3.647"/>
	
		<line style="fill:none;stroke:#020203;stroke-linecap:round;stroke-linejoin:round;stroke-miterlimit:10;" x1="204.206" y1="142.63" x2="212.357" y2="142.63"/>
	
		<line style="fill:none;stroke:#020203;stroke-linecap:round;stroke-linejoin:round;stroke-miterlimit:10;" x1="204.206" y1="145.234" x2="212.357" y2="145.234"/>
	
		<circle style="fill:none;stroke:#020203;stroke-linecap:round;stroke-linejoin:round;stroke-miterlimit:10;" cx="214.2" cy="137.853" r="0.535"/>
</g>
<g>
	<polygon style="fill:#020203;" points="132.567,181.207 132.567,184.831 136.353,184.831 	"/>
	<path style="fill:#020203;" d="M132.687,185.877c-0.643,0-1.165-0.522-1.165-1.165v-3.333c0-0.355-0.287-0.642-0.642-0.642h-6.804
		c-0.928,0-1.688,0.76-1.688,1.688v14.624c0,0.928,0.76,1.688,1.688,1.688h11.136c0.928,0,1.688-0.76,1.688-1.688v-10.53
		c0-0.355-0.287-0.642-0.642-0.642H132.687z"/>
</g>
<g>
	<path style="fill:none;stroke:#020203;stroke-linejoin:round;stroke-miterlimit:10;" d="M153.876,196.974l-3.01-0.128
		c-0.102,0.018-0.206-0.014-0.279-0.087l-2.576-2.576c-0.073-0.073-0.105-0.177-0.087-0.278l-0.123-3.006l10.767-10.767
		c0.589-0.589,1.552-0.589,2.141,0l3.933,3.933c0.589,0.589,0.589,1.552,0,2.141L153.876,196.974z"/>
	<polyline style="fill:none;stroke:#020203;stroke-linejoin:round;stroke-miterlimit:10;" points="147.836,194.139 144.264,197.69 
		149.847,197.686 150.615,196.918 	"/>
	
		<line style="fill:none;stroke:#020203;stroke-linejoin:round;stroke-miterlimit:10;" x1="147.936" y1="190.899" x2="153.865" y2="196.828"/>
</g>
<g>
	<path style="fill:none;stroke:#020203;stroke-linejoin:round;stroke-miterlimit:10;" d="M180.933,181.699l1.567-1.567
		c0.589-0.589,1.552-0.589,2.141,0l3.933,3.933c0.589,0.589,0.589,1.552,0,2.141l-10.767,10.767l-3.01-0.128
		c-0.102,0.018-0.206-0.014-0.279-0.087l-2.576-2.576c-0.073-0.073-0.105-0.177-0.087-0.278l-0.123-3.006l2.722-2.722"/>
	<polyline style="fill:none;stroke:#020203;stroke-linejoin:round;stroke-miterlimit:10;" points="171.766,194.139 168.195,197.69 
		173.777,197.686 174.546,196.918 	"/>
	
		<line style="fill:none;stroke:#020203;stroke-linejoin:round;stroke-miterlimit:10;" x1="171.866" y1="190.899" x2="177.795" y2="196.828"/>
</g>
<circle style="fill:none;stroke:#020203;stroke-linecap:round;stroke-linejoin:round;stroke-miterlimit:10;" cx="176.746" cy="183.895" r="4.589"/>
<g>
	
		<line style="fill:none;stroke:#020203;stroke-linecap:round;stroke-linejoin:round;stroke-miterlimit:10;" x1="178.358" y1="182.283" x2="175.134" y2="185.507"/>
	
		<line style="fill:none;stroke:#020203;stroke-linecap:round;stroke-linejoin:round;stroke-miterlimit:10;" x1="178.358" y1="185.507" x2="175.134" y2="182.283"/>
</g>
</svg>
