<svg id="Layer_1" data-name="Layer 1" xmlns="http://www.w3.org/2000/svg" viewBox="0 0 355.76 111.09"><defs><style>.cls-1,.cls-3{fill:#1d1d1b;}.cls-2{fill:#ec681c;}.cls-3{font-size:18px;font-family:MyriadPro-Light, Myriad Pro;}.cls-4{letter-spacing:0em;}</style></defs><title>logo</title><path class="cls-1" d="M283.21,309.66a23.93,23.93,0,0,1-1.93,7.37,16.58,16.58,0,0,1-4,5.52,17.13,17.13,0,0,1-6,3.46,24.35,24.35,0,0,1-7.94,1.2,19.51,19.51,0,0,1-8.33-1.74,18.27,18.27,0,0,1-6.41-4.94,22.78,22.78,0,0,1-4.11-7.68,32.21,32.21,0,0,1-1.44-9.92v-6.78a32.4,32.4,0,0,1,1.44-9.94,22.37,22.37,0,0,1,4.13-7.68,18.56,18.56,0,0,1,6.5-4.94,20.2,20.2,0,0,1,8.55-1.76,23.7,23.7,0,0,1,7.74,1.18,16.48,16.48,0,0,1,5.91,3.46,17.24,17.24,0,0,1,4,5.56,23.19,23.19,0,0,1,1.91,7.42h-4.59a22.3,22.3,0,0,0-1.48-5.83,12.48,12.48,0,0,0-2.91-4.31,12.35,12.35,0,0,0-4.44-2.67,18.22,18.22,0,0,0-6.09-.93,15,15,0,0,0-6.74,1.46,14.38,14.38,0,0,0-5,4.13,19,19,0,0,0-3.17,6.43,29.87,29.87,0,0,0-1.09,8.35v6.85a30.76,30.76,0,0,0,1,8.2,19.64,19.64,0,0,0,3,6.48,14.12,14.12,0,0,0,4.93,4.24,14.33,14.33,0,0,0,6.7,1.52q7.15,0,10.78-3.43t4.48-10.28Z" transform="translate(-243.07 -245.1)"/><path class="cls-1" d="M321.76,311.37H297.29l-5.55,15.11H287l20.4-53.92h4.33l20.4,53.92h-4.74Zm-23.07-3.89h21.63l-10.81-29.37Z" transform="translate(-243.07 -245.1)"/><path class="cls-1" d="M344.58,304.52v22H340V272.56h18.37a23.7,23.7,0,0,1,7.83,1.18,16,16,0,0,1,5.68,3.31,13.69,13.69,0,0,1,3.46,5.09,17.65,17.65,0,0,1,1.17,6.52,18,18,0,0,1-1.17,6.68,13,13,0,0,1-3.44,5,15.28,15.28,0,0,1-5.68,3.11,26.1,26.1,0,0,1-7.85,1.07Zm0-3.85h13.81a18.77,18.77,0,0,0,6.18-.91,11.12,11.12,0,0,0,4.22-2.52,10,10,0,0,0,2.41-3.8,13.93,13.93,0,0,0,.78-4.7,14.31,14.31,0,0,0-.78-4.72,10.57,10.57,0,0,0-2.41-3.92,11.37,11.37,0,0,0-4.22-2.67,17.5,17.5,0,0,0-6.18-1H344.58Z" transform="translate(-243.07 -245.1)"/><path class="cls-1" d="M417.23,313.22a10.11,10.11,0,0,0-.72-3.94,8.27,8.27,0,0,0-2.44-3.15,18.18,18.18,0,0,0-4.54-2.61,61.06,61.06,0,0,0-7-2.37,65.43,65.43,0,0,1-7.33-2.5,22.94,22.94,0,0,1-5.54-3.17,13.11,13.11,0,0,1-3.52-4.18,11.81,11.81,0,0,1-1.24-5.55,12.06,12.06,0,0,1,1.33-5.67,13.08,13.08,0,0,1,3.74-4.39,18.13,18.13,0,0,1,5.74-2.85,24.87,24.87,0,0,1,7.3-1,22.16,22.16,0,0,1,7.68,1.26,17.6,17.6,0,0,1,5.83,3.44,15.12,15.12,0,0,1,3.7,5.11,15.38,15.38,0,0,1,1.3,6.3H416.9a12.63,12.63,0,0,0-.93-4.87,10.77,10.77,0,0,0-2.7-3.87,12.69,12.69,0,0,0-4.37-2.56,17.57,17.57,0,0,0-5.93-.93,19.63,19.63,0,0,0-5.87.8,12.81,12.81,0,0,0-4.22,2.15,9.06,9.06,0,0,0-2.56,3.17,8.79,8.79,0,0,0-.87,3.85,8.67,8.67,0,0,0,.72,3.56,8.28,8.28,0,0,0,2.43,3,19.14,19.14,0,0,0,4.48,2.59,48.59,48.59,0,0,0,6.85,2.28,63.18,63.18,0,0,1,7.59,2.59,22.37,22.37,0,0,1,5.63,3.31,13,13,0,0,1,3.48,4.39,13.18,13.18,0,0,1,1.18,5.74,12.38,12.38,0,0,1-1.39,5.91,13.08,13.08,0,0,1-3.85,4.43,18.09,18.09,0,0,1-5.87,2.78,27.17,27.17,0,0,1-7.41,1,29.16,29.16,0,0,1-4.83-.41,25.5,25.5,0,0,1-4.67-1.24,20.19,20.19,0,0,1-4.18-2.13,14.62,14.62,0,0,1-3.37-3.09,14.39,14.39,0,0,1-2.26-4.11,15.17,15.17,0,0,1-.83-5.17h4.56a11,11,0,0,0,1.41,5.76,11.49,11.49,0,0,0,3.63,3.8,15.58,15.58,0,0,0,5,2.09,24.36,24.36,0,0,0,5.55.65,21.16,21.16,0,0,0,5.72-.72,13.72,13.72,0,0,0,4.41-2.06,9.26,9.26,0,0,0,2.81-3.2A8.83,8.83,0,0,0,417.23,313.22Z" transform="translate(-243.07 -245.1)"/><path class="cls-1" d="M485.21,322.62h26.63v3.85H480.62V272.56h4.59Z" transform="translate(-243.07 -245.1)"/><path class="cls-1" d="M550.35,300.63H525.13v22h29v3.85H520.57V272.56h33.37v3.89H525.13v20.33h25.22Z" transform="translate(-243.07 -245.1)"/><path class="cls-1" d="M594.23,313.22a10.12,10.12,0,0,0-.72-3.94,8.28,8.28,0,0,0-2.44-3.15,18.19,18.19,0,0,0-4.54-2.61,61.13,61.13,0,0,0-7-2.37,65.46,65.46,0,0,1-7.33-2.5,22.92,22.92,0,0,1-5.54-3.17,13.1,13.1,0,0,1-3.52-4.18,11.8,11.8,0,0,1-1.24-5.55,12.07,12.07,0,0,1,1.33-5.67,13.09,13.09,0,0,1,3.74-4.39,18.13,18.13,0,0,1,5.74-2.85,24.87,24.87,0,0,1,7.3-1,22.16,22.16,0,0,1,7.68,1.26,17.6,17.6,0,0,1,5.83,3.44,15.11,15.11,0,0,1,3.7,5.11,15.38,15.38,0,0,1,1.3,6.3H593.9a12.65,12.65,0,0,0-.93-4.87,10.77,10.77,0,0,0-2.7-3.87,12.69,12.69,0,0,0-4.37-2.56,17.57,17.57,0,0,0-5.93-.93,19.63,19.63,0,0,0-5.87.8,12.81,12.81,0,0,0-4.22,2.15,9.06,9.06,0,0,0-2.56,3.17,8.79,8.79,0,0,0-.87,3.85,8.67,8.67,0,0,0,.72,3.56,8.27,8.27,0,0,0,2.43,3,19.13,19.13,0,0,0,4.48,2.59,48.61,48.61,0,0,0,6.85,2.28,63.22,63.22,0,0,1,7.59,2.59,22.38,22.38,0,0,1,5.63,3.31,12.94,12.94,0,0,1,3.48,4.39,13.18,13.18,0,0,1,1.19,5.74,12.38,12.38,0,0,1-1.39,5.91,13.08,13.08,0,0,1-3.85,4.43,18.09,18.09,0,0,1-5.87,2.78,27.17,27.17,0,0,1-7.41,1,29.16,29.16,0,0,1-4.83-.41,25.5,25.5,0,0,1-4.67-1.24,20.17,20.17,0,0,1-4.18-2.13,14.61,14.61,0,0,1-3.37-3.09,14.39,14.39,0,0,1-2.26-4.11,15.16,15.16,0,0,1-.83-5.17h4.56a11,11,0,0,0,1.41,5.76,11.5,11.5,0,0,0,3.63,3.8,15.58,15.58,0,0,0,5,2.09,24.37,24.37,0,0,0,5.56.65,21.16,21.16,0,0,0,5.72-.72,13.72,13.72,0,0,0,4.41-2.06,9.25,9.25,0,0,0,2.81-3.2A8.83,8.83,0,0,0,594.23,313.22Z" transform="translate(-243.07 -245.1)"/><path class="cls-1" d="M324.9,252.08h-.48a10.06,10.06,0,0,0,.13-1.52,3.78,3.78,0,0,0-.35-1.74,2.89,2.89,0,0,0-1.18-1.27,3.36,3.36,0,0,0-1.71-.45,5,5,0,0,0-3.53,1.72,12.94,12.94,0,0,0-2.76,4.32,13.42,13.42,0,0,0-1.06,5,5.24,5.24,0,0,0,.84,3.21,2.74,2.74,0,0,0,2.31,1.1,5.31,5.31,0,0,0,2-.45,5.59,5.59,0,0,0,1.87-1.27,5.89,5.89,0,0,0,1-1.33,22.37,22.37,0,0,0,1-2.14h.48q-1,3.81-1.3,5.28h-.48a5.48,5.48,0,0,0,.07-.75q0-.57-.26-.57a1,1,0,0,0-.46.2,11.64,11.64,0,0,1-2,1.09,5.87,5.87,0,0,1-2.16.34,4.65,4.65,0,0,1-5.13-5.17,11.5,11.5,0,0,1,1.26-5.1,11.72,11.72,0,0,1,3.48-4.25,7.87,7.87,0,0,1,4.85-1.67,4.18,4.18,0,0,1,1.95.36,5.34,5.34,0,0,1,1.33,1.07.43.43,0,0,0,.33.2c.13,0,.27-.11.41-.32a5.67,5.67,0,0,0,.47-1h.46A35.44,35.44,0,0,0,324.9,252.08Z" transform="translate(-243.07 -245.1)"/><path class="cls-1" d="M335.39,259h.42l-.55,1.61a3.85,3.85,0,0,1-1.12,1.75,2.25,2.25,0,0,1-1.41.54,1.61,1.61,0,0,1-.73-.15,1.22,1.22,0,0,1-.48-.42,1.47,1.47,0,0,1-.2-.77,4,4,0,0,1,.15-1l.2-.73.4-1.58a11.84,11.84,0,0,1-2.15,3.58,3.19,3.19,0,0,1-2.28,1.11,1.78,1.78,0,0,1-1.54-.73,3.23,3.23,0,0,1-.53-1.94,10.2,10.2,0,0,1,.95-4,12,12,0,0,1,2.46-3.74,4.39,4.39,0,0,1,3.08-1.54,1.21,1.21,0,0,1,1,.44,2.14,2.14,0,0,1,.44,1.23l.35-1.36a7.57,7.57,0,0,0,2-.31l-2.75,9.72L333,261a1.87,1.87,0,0,0-.07.47q0,.55.48.55,1,0,1.69-2.24Zm-5.63,2.24a12.13,12.13,0,0,0,1.68-2.52,18.51,18.51,0,0,0,1.35-3.36l.4-1.56a4.11,4.11,0,0,0,0-.48,2.7,2.7,0,0,0-.32-1.42,1,1,0,0,0-.89-.52q-.95,0-2,1.46a13.34,13.34,0,0,0-1.77,3.61,12.79,12.79,0,0,0-.71,4,3.1,3.1,0,0,0,.2,1.3.62.62,0,0,0,.57.4A2.3,2.3,0,0,0,329.76,261.25Z" transform="translate(-243.07 -245.1)"/><path class="cls-1" d="M339.55,260.72a2,2,0,0,0-.07.48.81.81,0,0,0,.26.66,1,1,0,0,0,.68.22,1.43,1.43,0,0,0,1-.47,5,5,0,0,0,.94-1.73l.31-.86h.42l-.46,1.39a3.94,3.94,0,0,1-1.2,1.93,2.91,2.91,0,0,1-1.82.56,2,2,0,0,1-1.47-.48,1.81,1.81,0,0,1-.48-1.34,4.51,4.51,0,0,1,.2-1.25l2.33-8.1h-2l.11-.44h2l1-3.34a7.18,7.18,0,0,0,2-.31l-1,3.65h2.9l-.07.44h-3Z" transform="translate(-243.07 -245.1)"/><path class="cls-1" d="M355,259l-.55,1.61q-.79,2.27-2.66,2.27-1.54,0-1.54-1.36a5.71,5.71,0,0,1,.35-1.72l2.09-6.29a3.32,3.32,0,0,0,.22-1.1q0-.75-.7-.75a2.55,2.55,0,0,0-1.75,1,13.22,13.22,0,0,0-1.88,2.87,30.83,30.83,0,0,0-1.76,4.29l-.79,2.73h-1.91l4.36-14.68a2.26,2.26,0,0,0,.11-.59.7.7,0,0,0-.35-.65,2.4,2.4,0,0,0-1.17-.21l.13-.46a8.57,8.57,0,0,0,4-.9L347.93,256a12.86,12.86,0,0,1,2.38-3.86,3.63,3.63,0,0,1,2.6-1.18q1.78,0,1.78,1.67a5.11,5.11,0,0,1-.33,1.65l-2.13,6.42a2.84,2.84,0,0,0-.18.84.47.47,0,0,0,.53.53,1.13,1.13,0,0,0,.85-.49,6.14,6.14,0,0,0,.85-1.75l.29-.81Z" transform="translate(-243.07 -245.1)"/><path class="cls-1" d="M357.31,255.72a9.06,9.06,0,0,1,2.22-3.37A4.75,4.75,0,0,1,362.9,251a2.86,2.86,0,0,1,2.21.87,3.69,3.69,0,0,1,.8,2.59,10.38,10.38,0,0,1-.77,3.73,9.06,9.06,0,0,1-2.22,3.37,4.75,4.75,0,0,1-3.37,1.38,2.86,2.86,0,0,1-2.21-.87,3.69,3.69,0,0,1-.8-2.59A10.37,10.37,0,0,1,357.31,255.72Zm3.33-2.87a11.76,11.76,0,0,0-1.61,3.58,15.16,15.16,0,0,0-.61,4.12,2.67,2.67,0,0,0,.31,1.45,1.06,1.06,0,0,0,.95.46,2.73,2.73,0,0,0,2.12-1.43,11.79,11.79,0,0,0,1.61-3.58,15.19,15.19,0,0,0,.61-4.13,2.67,2.67,0,0,0-.31-1.45,1.06,1.06,0,0,0-.95-.46A2.73,2.73,0,0,0,360.64,252.85Z" transform="translate(-243.07 -245.1)"/><path class="cls-1" d="M368.92,261.49q0,.59.51.59a1.06,1.06,0,0,0,.83-.51,6.9,6.9,0,0,0,.82-1.74l.29-.81h.42l-.55,1.61q-.77,2.27-2.64,2.27-1.52,0-1.52-1.43a6.78,6.78,0,0,1,.31-1.65l3.59-11.9a2.5,2.5,0,0,0,.11-.62.68.68,0,0,0-.34-.64,2.45,2.45,0,0,0-1.15-.2l.15-.46a10,10,0,0,0,2.1-.24,8.28,8.28,0,0,0,1.82-.66l-4.6,15.62A2.92,2.92,0,0,0,368.92,261.49Z" transform="translate(-243.07 -245.1)"/><path class="cls-1" d="M376.56,252.34q0-.55-.48-.55a1.13,1.13,0,0,0-.9.53,7.15,7.15,0,0,0-.84,1.72l-.31.81h-.42l.57-1.61a3.43,3.43,0,0,1,1.18-1.76,2.7,2.7,0,0,1,1.55-.51q1.45,0,1.45,1.39a5.07,5.07,0,0,1-.35,1.69l-2.35,6.67a2.82,2.82,0,0,0-.18.81q0,.55.53.55a1.1,1.1,0,0,0,.86-.51,7,7,0,0,0,.86-1.74L378,259h.42l-.57,1.61a3.63,3.63,0,0,1-1.16,1.74,2.56,2.56,0,0,1-1.55.53q-1.54,0-1.54-1.34a5.51,5.51,0,0,1,.4-1.74l2.35-6.67A2.81,2.81,0,0,0,376.56,252.34Zm1-6a1.53,1.53,0,0,1,1.13-.52,1.06,1.06,0,0,1,.81.33,1.15,1.15,0,0,1,.31.81,1.6,1.6,0,0,1-.51,1.17,1.58,1.58,0,0,1-1.14.51,1.05,1.05,0,0,1-.79-.32,1.11,1.11,0,0,1-.31-.8A1.66,1.66,0,0,1,377.54,246.39Z" transform="translate(-243.07 -245.1)"/><path class="cls-1" d="M384.47,252.6a9.09,9.09,0,0,0-1.78,3.15,12.24,12.24,0,0,0-.69,4.11,2.56,2.56,0,0,0,.41,1.59,1.36,1.36,0,0,0,1.13.52q1.8,0,3.3-2.2l.44.18a6.75,6.75,0,0,1-1.9,2.08,4.23,4.23,0,0,1-2.52.87,2.78,2.78,0,0,1-2.12-.83,3.38,3.38,0,0,1-.78-2.41,10.15,10.15,0,0,1,.84-3.83,9.57,9.57,0,0,1,2.35-3.45,4.94,4.94,0,0,1,3.45-1.41,2.77,2.77,0,0,1,1.69.51,1.61,1.61,0,0,1,.68,1.36,1.88,1.88,0,0,1-.44,1.22,1.38,1.38,0,0,1-1.12.54.88.88,0,0,1-.67-.24.85.85,0,0,1-.23-.62,1.41,1.41,0,0,1,.48-1.07,2.32,2.32,0,0,1,1.17-.58,1.68,1.68,0,0,0-1.5-.68A3.05,3.05,0,0,0,384.47,252.6Z" transform="translate(-243.07 -245.1)"/><path class="cls-1" d="M464.77,272.39v36.79a16.58,16.58,0,0,1-1.07,6.22,12.21,12.21,0,0,1-3,4.44,12.57,12.57,0,0,1-4.55,2.69,19,19,0,0,1-11.59,0,12.74,12.74,0,0,1-4.57-2.69,12.08,12.08,0,0,1-3-4.44,16.57,16.57,0,0,1-1.07-6.22V272.39H431.4v36.79a20.15,20.15,0,0,0,1.44,7.94,15.54,15.54,0,0,0,4,5.65,16.86,16.86,0,0,0,6,3.39,24.05,24.05,0,0,0,7.5,1.13,23.69,23.69,0,0,0,7.39-1.13,17.05,17.05,0,0,0,6-3.39,16,16,0,0,0,4.07-5.65,19.49,19.49,0,0,0,1.5-7.94V272.39Z" transform="translate(-243.07 -245.1)"/><polygon class="cls-2" points="209.56 33.38 209.56 27.45 204.97 27.45 204.97 33.38 199.56 33.38 199.56 37.97 204.97 37.97 204.97 48.94 209.56 48.94 209.56 37.97 214.96 37.97 214.96 33.38 209.56 33.38"/><text class="cls-3" transform="translate(224.7 106.59)"><tspan class="cls-4">S</tspan><tspan x="8.44" y="0">oul Supplements</tspan></text></svg>