<svg xmlns="http://www.w3.org/2000/svg" viewBox="0 0 32.81 23.54"><defs><style>.cls-1{fill:#1d1d1b;opacity:0.5;}.cls-2{fill:none;stroke:#1d1d1b;stroke-linecap:round;stroke-linejoin:round;}</style></defs><title>list_active</title><g id="Layer_2" data-name="Layer 2"><g id="Layer_1-2" data-name="Layer 1"><path class="cls-1" d="M26.91.81H5.9a5,5,0,0,0-5,5v12a5,5,0,0,0,5,5h21a5,5,0,0,0,5-5v-12A5,5,0,0,0,26.91.81Zm1.17,17.34H4.73a2,2,0,0,1,0-3.93H28.08a2,2,0,1,1,0,3.93Zm0-8.14H4.73a2,2,0,0,1,0-3.93H28.08a2,2,0,1,1,0,3.93Z"/><rect class="cls-2" x="0.5" y="0.5" width="31.81" height="22.54" rx="4.96" ry="4.96"/><rect class="cls-2" x="2.77" y="6.08" width="27.27" height="3.93" rx="1.96" ry="1.96"/><rect class="cls-2" x="2.77" y="14.22" width="27.27" height="3.93" rx="1.96" ry="1.96"/></g></g></svg>