<svg xmlns="http://www.w3.org/2000/svg" viewBox="0 0 29.82 23.05"><defs><style>.cls-1,.cls-2{fill:none;stroke:#1d1d1b;}.cls-1{stroke-linecap:round;stroke-linejoin:round;stroke-width:5px;}.cls-2{stroke-miterlimit:10;stroke-width:2px;}.cls-3{fill:#1d1d1b;opacity:0.4;}</style></defs><title>slides</title><g id="Layer_2" data-name="Layer 2"><g id="Layer_1-2" data-name="Layer 1"><path class="cls-1" d="M8.81,21.4"/><path class="cls-2" d="M27.39,6.27A1.44,1.44,0,0,1,28.82,7.7V19.41a2.65,2.65,0,0,1-2.64,2.64H7.52a1.44,1.44,0,0,1-1.43-1.43"/><path class="cls-3" d="M23.37,9.89A1.55,1.55,0,0,0,20.59,9c-2.24,2.86-6.15,7.74-12.84,7.74H21.83a1.54,1.54,0,0,0,1.54-1.54Z"/><path class="cls-2" d="M3.08,1H23.25A2.55,2.55,0,0,1,25.8,3.55V16.28a2.55,2.55,0,0,1-2.55,2.55H3.55A2.55,2.55,0,0,1,1,16.28V3.08A2.08,2.08,0,0,1,3.08,1Z"/></g></g></svg>