<svg xmlns="http://www.w3.org/2000/svg" viewBox="0 0 21.82 19.38"><defs><style>.cls-1,.cls-2{fill:none;stroke:#010101;stroke-linejoin:round;}.cls-2{stroke-linecap:round;}</style></defs><title>remove_highlight</title><g id="Layer_2" data-name="Layer 2"><g id="Layer_1-2" data-name="Layer 1"><path class="cls-1" d="M13.24,2.89,14.8,1.33a1.52,1.52,0,0,1,2.14,0l3.93,3.93a1.52,1.52,0,0,1,0,2.14L10.11,18.17,7.1,18A.31.31,0,0,1,6.82,18L4.25,15.38a.31.31,0,0,1-.09-.28l-.12-3L6.76,9.37"/><polyline class="cls-1" points="4.07 15.33 0.5 18.88 6.08 18.88 6.85 18.11"/><line class="cls-1" x1="4.17" y1="12.09" x2="10.1" y2="18.02"/><circle class="cls-2" cx="9.05" cy="5.09" r="4.59"/><line class="cls-2" x1="10.66" y1="3.48" x2="7.44" y2="6.7"/><line class="cls-2" x1="10.66" y1="6.7" x2="7.44" y2="3.48"/></g></g></svg>