<svg xmlns="http://www.w3.org/2000/svg" viewBox="0 0 19.18 19.03"><defs><style>.cls-1{fill:none;stroke:#010101;stroke-linecap:round;stroke-linejoin:round;}</style></defs><title>summ_print</title><g id="Layer_2" data-name="Layer 2"><g id="Layer_1-2" data-name="Layer 1"><path class="cls-1" d="M3.16,15.25H2.37A1.87,1.87,0,0,1,.5,13.38V7.77A1.87,1.87,0,0,1,2.37,5.89H16.81a1.87,1.87,0,0,1,1.87,1.87v5.61a1.87,1.87,0,0,1-1.87,1.87H16"/><path class="cls-1" d="M16,15.3v1.48a1.75,1.75,0,0,1-1.75,1.75H4.93a1.75,1.75,0,0,1-1.75-1.75V15.15"/><polyline class="cls-1" points="3.18 15.15 3.18 11.05 16 11.05 16 15.3"/><path class="cls-1" d="M3.18,5.9V2.25A1.75,1.75,0,0,1,4.93.5h9.32A1.75,1.75,0,0,1,16,2.25V5.9"/><line class="cls-1" x1="5.52" y1="13.42" x2="13.67" y2="13.42"/><line class="cls-1" x1="5.52" y1="16.02" x2="13.67" y2="16.02"/><circle class="cls-1" cx="15.51" cy="8.64" r="0.53"/></g></g></svg>