<svg xmlns="http://www.w3.org/2000/svg" viewBox="0 0 25.2 18"><defs><style>.cls-1{fill:none;stroke:#1d1d1b;stroke-linecap:round;stroke-linejoin:round;stroke-width:2px;}.cls-2{fill:#1d1d1b;opacity:0.3;}</style></defs><title>videos</title><g id="Layer_2" data-name="Layer 2"><g id="Layer_1-2" data-name="Layer 1"><path class="cls-1" d="M13.2,17a78.48,78.48,0,0,1-8-.42c-.65-.07-1.29-.14-1.94-.23a2.23,2.23,0,0,1-1.9-2A42.16,42.16,0,0,1,1,9a32.54,32.54,0,0,1,.41-5.61A2.1,2.1,0,0,1,3.18,1.65c1.3-.17,2.6-.34,3.9-.42,2-.12,4-.23,6.06-.23a63.4,63.4,0,0,1,8.64.6,2.23,2.23,0,0,1,2,2.08A27.72,27.72,0,0,1,24.18,9a51.09,51.09,0,0,1-.4,5.52,2.14,2.14,0,0,1-1.95,1.84c-1.49.15-3,.34-4.48.45S14.18,17,13.2,17Z"/><path class="cls-1" d="M10.44,9c0,1.1,0,2.2,0,3.31a.59.59,0,0,0,.32.6.61.61,0,0,0,.68-.1L16,9.55a.58.58,0,0,0,0-1L11.42,5.22a.61.61,0,0,0-.68-.1.6.6,0,0,0-.31.61C10.44,6.83,10.44,7.93,10.44,9Z"/><path class="cls-2" d="M10.44,9c0,1.1,0,2.2,0,3.31a.59.59,0,0,0,.32.6.61.61,0,0,0,.68-.1L16,9.55a.58.58,0,0,0,0-1L11.42,5.22a.61.61,0,0,0-.68-.1.6.6,0,0,0-.31.61C10.44,6.83,10.44,7.93,10.44,9Z"/></g></g></svg>