<svg xmlns="http://www.w3.org/2000/svg" viewBox="0 0 18.28 17.27"><defs><style>.cls-1{fill:#1d1d1b;opacity:0.3;}.cls-2{fill:none;stroke:#1d1d1b;stroke-linecap:round;stroke-miterlimit:10;stroke-width:1.5px;}</style></defs><title>popular</title><g id="Layer_2" data-name="Layer 2"><g id="Layer_1-2" data-name="Layer 1"><path class="cls-1" d="M9.14,13.2l3.4-3.4,1.07-1.07a2.37,2.37,0,1,0-3.35-3.35L9.19,6.45h-.1L8,5.38A2.37,2.37,0,1,0,4.67,8.73L5.74,9.8Z"/><path class="cls-2" d="M9.14,13.2l3.4-3.4,1.07-1.07a2.37,2.37,0,1,0-3.35-3.35L9.19,6.45h-.1L8,5.38A2.37,2.37,0,1,0,4.67,8.73L5.74,9.8Z"/><path class="cls-2" d="M9.82.75H15.1a2.43,2.43,0,0,1,2.43,2.43v10.9a2.43,2.43,0,0,1-2.43,2.43H3.18A2.43,2.43,0,0,1,.75,14.08V3.18A2.43,2.43,0,0,1,3.18.75H7.4"/><path class="cls-2" d="M7.14,15.49"/><path class="cls-2" d="M7.14,1.42"/></g></g></svg>