<?xml version="1.0" encoding="UTF-8" standalone="no"?>
<!DOCTYPE svg PUBLIC "-//W3C//DTD SVG 1.1//EN" "http://www.w3.org/Graphics/SVG/1.1/DTD/svg11.dtd">
<svg version="1.1" xmlns="http://www.w3.org/2000/svg" xmlns:xlink="http://www.w3.org/1999/xlink" preserveAspectRatio="xMidYMid meet" viewBox="0 0 640 640" width="640" height="640"><defs><path d="M530.56 100.32C596.84 100.32 629.98 133.46 629.98 199.74C629.98 344.05 629.98 424.23 629.98 440.26C629.98 506.54 596.84 539.68 530.56 539.68C277.89 539.68 137.51 539.68 109.44 539.68C43.16 539.68 10.02 506.54 10.02 440.26C10.02 295.95 10.02 215.77 10.02 199.74C10.02 133.46 43.16 100.32 109.44 100.32C362.11 100.32 502.49 100.32 530.56 100.32Z" id="aenR0PucJ"></path><path d="M109.64 100.32C54.29 100.32 9.42 145.19 9.42 200.54C9.42 224.59 9.42 417.01 9.42 441.06C9.42 496.41 54.29 541.28 109.64 541.28C151.73 541.28 488.47 541.28 530.56 541.28C585.91 541.28 630.78 496.41 630.78 441.06C630.78 417.01 630.78 224.59 630.78 200.54C630.78 145.19 585.91 100.32 530.56 100.32C530.56 100.32 151.73 100.32 109.64 100.32ZM245.14 473.13C165.64 473.13 121.48 473.13 112.65 473.13C78.11 473.13 50.11 445.14 50.11 410.6C50.11 376.06 78.11 348.06 112.65 348.06C125.92 348.06 232.07 348.06 245.34 348.06C279.87 348.06 307.87 376.06 307.87 410.6C307.87 445.14 279.87 473.13 245.34 473.13C245.31 473.13 245.24 473.13 245.14 473.13ZM245.14 292.74C165.64 292.74 121.48 292.74 112.65 292.74C78.11 292.74 50.11 264.74 50.11 230.2C50.11 195.67 78.11 167.67 112.65 167.67C125.92 167.67 232.07 167.67 245.34 167.67C279.87 167.67 307.87 195.67 307.87 230.2C307.87 264.74 279.87 292.74 245.34 292.74C245.31 292.74 245.24 292.74 245.14 292.74ZM527.35 473.13C447.86 473.13 403.7 473.13 394.86 473.13C360.33 473.13 332.33 445.14 332.33 410.6C332.33 376.06 360.33 348.06 394.86 348.06C408.13 348.06 514.28 348.06 527.55 348.06C562.09 348.06 590.09 376.06 590.09 410.6C590.09 445.14 562.09 473.13 527.55 473.13C527.53 473.13 527.46 473.13 527.35 473.13ZM527.35 292.74C447.86 292.74 403.7 292.74 394.86 292.74C360.33 292.74 332.33 264.74 332.33 230.2C332.33 195.67 360.33 167.67 394.86 167.67C408.13 167.67 514.28 167.67 527.55 167.67C562.09 167.67 590.09 195.67 590.09 230.2C590.09 264.74 562.09 292.74 527.55 292.74C527.53 292.74 527.46 292.74 527.35 292.74Z" id="aPmeI8Kwb"></path><path d="M245.14 167.07C286.83 167.07 307.67 187.91 307.67 229.6C307.67 229.6 307.67 229.6 307.67 229.6C307.67 271.29 286.83 292.14 245.14 292.14C165.64 292.14 121.48 292.14 112.65 292.14C70.96 292.14 50.11 271.29 50.11 229.6C50.11 229.6 50.11 229.6 50.11 229.6C50.11 187.91 70.96 167.07 112.65 167.07C192.14 167.07 236.3 167.07 245.14 167.07Z" id="a2sJXjppNw"></path><path d="M527.35 167.07C569.04 167.07 589.89 187.91 589.89 229.6C589.89 229.6 589.89 229.6 589.89 229.6C589.89 271.29 569.04 292.14 527.35 292.14C447.86 292.14 403.7 292.14 394.86 292.14C353.17 292.14 332.33 271.29 332.33 229.6C332.33 229.6 332.33 229.6 332.33 229.6C332.33 187.91 353.17 167.07 394.86 167.07C474.36 167.07 518.52 167.07 527.35 167.07Z" id="b2RqOJRXex"></path><path d="M245.14 348.06C286.83 348.06 307.67 368.91 307.67 410.6C307.67 410.6 307.67 410.6 307.67 410.6C307.67 452.29 286.83 473.13 245.14 473.13C165.64 473.13 121.48 473.13 112.65 473.13C70.96 473.13 50.11 452.29 50.11 410.6C50.11 410.6 50.11 410.6 50.11 410.6C50.11 368.91 70.96 348.06 112.65 348.06C192.14 348.06 236.3 348.06 245.14 348.06Z" id="a2fsWsJnBh"></path><path d="M527.35 348.06C569.04 348.06 589.89 368.91 589.89 410.6C589.89 410.6 589.89 410.6 589.89 410.6C589.89 452.29 569.04 473.13 527.35 473.13C447.86 473.13 403.7 473.13 394.86 473.13C353.17 473.13 332.33 452.29 332.33 410.6C332.33 410.6 332.33 410.6 332.33 410.6C332.33 368.91 353.17 348.06 394.86 348.06C474.36 348.06 518.52 348.06 527.35 348.06Z" id="bmGeNJ3N"></path></defs><g><g><g><use xlink:href="#aenR0PucJ" opacity="1" fill="#000000" fill-opacity="0"></use><g><use xlink:href="#aenR0PucJ" opacity="1" fill-opacity="0" stroke="#1d1d1b" stroke-width="12" stroke-opacity="1"></use></g></g><g><use xlink:href="#aPmeI8Kwb" opacity="0.5" fill="#1d1d1b" fill-opacity="1"></use><g><use xlink:href="#aPmeI8Kwb" opacity="0.5" fill-opacity="0" stroke="#1d1d1b" stroke-width="1" stroke-opacity="0"></use></g></g><g><use xlink:href="#a2sJXjppNw" opacity="1" fill="#ffffff" fill-opacity="1"></use><g><use xlink:href="#a2sJXjppNw" opacity="1" fill-opacity="0" stroke="#1d1d1b" stroke-width="10" stroke-opacity="1"></use></g></g><g><use xlink:href="#b2RqOJRXex" opacity="1" fill="#ffffff" fill-opacity="1"></use><g><use xlink:href="#b2RqOJRXex" opacity="1" fill-opacity="0" stroke="#1d1d1b" stroke-width="10" stroke-opacity="1"></use></g></g><g><use xlink:href="#a2fsWsJnBh" opacity="1" fill="#ffffff" fill-opacity="1"></use><g><use xlink:href="#a2fsWsJnBh" opacity="1" fill-opacity="0" stroke="#1d1d1b" stroke-width="10" stroke-opacity="1"></use></g></g><g><use xlink:href="#bmGeNJ3N" opacity="1" fill="#ffffff" fill-opacity="1"></use><g><use xlink:href="#bmGeNJ3N" opacity="1" fill-opacity="0" stroke="#1d1d1b" stroke-width="10" stroke-opacity="1"></use></g></g></g></g></svg>